<mxfile host="65bd71144e">
    <diagram id="TsHCjm7W-puMc6sQwqfO" name="PÃ¡gina-1">
        <mxGraphModel dx="1477" dy="383" grid="1" gridSize="10" guides="1" tooltips="1" connect="1" arrows="1" fold="1" page="1" pageScale="1" pageWidth="827" pageHeight="1169" math="1" shadow="0">
            <root>
                <mxCell id="0"/>
                <mxCell id="1" parent="0"/>
                <mxCell id="4" value="" style="edgeStyle=none;html=1;fontFamily=Comic Sans MS;fontSize=27;" parent="1" source="2" target="3" edge="1">
                    <mxGeometry relative="1" as="geometry"/>
                </mxCell>
                <mxCell id="2" value="Inicio" style="ellipse;whiteSpace=wrap;html=1;fillColor=#647687;fontColor=#ffffff;strokeColor=#314354;fontFamily=Comic Sans MS;fontSize=27;" parent="1" vertex="1">
                    <mxGeometry x="354" y="30" width="120" height="80" as="geometry"/>
                </mxCell>
                <mxCell id="6" value="" style="edgeStyle=none;html=1;fontFamily=Comic Sans MS;fontSize=27;" parent="1" source="3" target="5" edge="1">
                    <mxGeometry relative="1" as="geometry"/>
                </mxCell>
                <mxCell id="3" value="A,B,C" style="shape=parallelogram;perimeter=parallelogramPerimeter;whiteSpace=wrap;html=1;fixedSize=1;fontSize=27;fontFamily=Comic Sans MS;fillColor=#1ba1e2;strokeColor=#006EAF;fontColor=#ffffff;" parent="1" vertex="1">
                    <mxGeometry x="354" y="200" width="120" height="60" as="geometry"/>
                </mxCell>
                <mxCell id="8" value="" style="edgeStyle=none;html=1;fontFamily=Comic Sans MS;fontSize=27;" parent="1" source="5" target="7" edge="1">
                    <mxGeometry relative="1" as="geometry"/>
                </mxCell>
                <mxCell id="5" value="D=B^2-(4*A*C)" style="whiteSpace=wrap;html=1;fontSize=27;fontFamily=Comic Sans MS;fillColor=#6a00ff;strokeColor=#3700CC;fontColor=#ffffff;" parent="1" vertex="1">
                    <mxGeometry x="302" y="340" width="224" height="80" as="geometry"/>
                </mxCell>
                <mxCell id="10" value="" style="edgeStyle=none;html=1;fontFamily=Comic Sans MS;fontSize=27;" parent="1" source="7" target="9" edge="1">
                    <mxGeometry relative="1" as="geometry">
                        <Array as="points">
                            <mxPoint x="586" y="555"/>
                        </Array>
                    </mxGeometry>
                </mxCell>
                <mxCell id="12" value="" style="edgeStyle=none;html=1;fontFamily=Comic Sans MS;fontSize=27;" parent="1" source="7" target="11" edge="1">
                    <mxGeometry relative="1" as="geometry">
                        <Array as="points">
                            <mxPoint x="246" y="555"/>
                        </Array>
                    </mxGeometry>
                </mxCell>
                <mxCell id="7" value="D&amp;lt;=0" style="rhombus;whiteSpace=wrap;html=1;fontSize=27;fontFamily=Comic Sans MS;fillColor=#e3c800;strokeColor=#B09500;fontColor=#000000;" parent="1" vertex="1">
                    <mxGeometry x="362" y="500" width="104" height="110" as="geometry"/>
                </mxCell>
                <mxCell id="26" style="edgeStyle=none;html=1;entryX=0.5;entryY=0;entryDx=0;entryDy=0;fontFamily=Comic Sans MS;fontSize=18;" parent="1" source="9" target="23" edge="1">
                    <mxGeometry relative="1" as="geometry">
                        <Array as="points">
                            <mxPoint x="580" y="1240"/>
                            <mxPoint x="424" y="1240"/>
                        </Array>
                    </mxGeometry>
                </mxCell>
                <mxCell id="9" value="No hay soluciones son raices imaginarias" style="shape=document;whiteSpace=wrap;html=1;boundedLbl=1;fontSize=18;fontFamily=Comic Sans MS;fillColor=#60a917;strokeColor=#2D7600;fontColor=#ffffff;" parent="1" vertex="1">
                    <mxGeometry x="510" y="610" width="156" height="120" as="geometry"/>
                </mxCell>
                <mxCell id="14" value="" style="edgeStyle=none;html=1;fontFamily=Comic Sans MS;fontSize=18;" parent="1" source="11" target="13" edge="1">
                    <mxGeometry relative="1" as="geometry">
                        <Array as="points">
                            <mxPoint x="390" y="670"/>
                        </Array>
                    </mxGeometry>
                </mxCell>
                <mxCell id="16" value="" style="edgeStyle=none;html=1;fontFamily=Comic Sans MS;fontSize=18;" parent="1" source="11" target="15" edge="1">
                    <mxGeometry relative="1" as="geometry">
                        <Array as="points">
                            <mxPoint x="55" y="670"/>
                        </Array>
                    </mxGeometry>
                </mxCell>
                <mxCell id="11" value="D==0" style="rhombus;whiteSpace=wrap;html=1;fontSize=27;fontFamily=Comic Sans MS;fillColor=#e3c800;strokeColor=#B09500;fontColor=#000000;" parent="1" vertex="1">
                    <mxGeometry x="180" y="610" width="132" height="120" as="geometry"/>
                </mxCell>
                <mxCell id="22" value="" style="edgeStyle=none;html=1;fontFamily=Comic Sans MS;fontSize=18;" parent="1" source="13" target="21" edge="1">
                    <mxGeometry relative="1" as="geometry"/>
                </mxCell>
                <mxCell id="13" value="X=-b/(2+A)" style="whiteSpace=wrap;html=1;fontSize=27;fontFamily=Comic Sans MS;fillColor=#6a00ff;strokeColor=#3700CC;fontColor=#ffffff;" parent="1" vertex="1">
                    <mxGeometry x="312" y="730" width="160" height="60" as="geometry"/>
                </mxCell>
                <mxCell id="20" value="" style="edgeStyle=none;html=1;fontFamily=Comic Sans MS;fontSize=18;" parent="1" source="15" target="19" edge="1">
                    <mxGeometry relative="1" as="geometry"/>
                </mxCell>
                <mxCell id="15" value="X&lt;sup&gt;1&lt;/sup&gt;=-B+sqrt(D)/2*A&lt;br&gt;X&lt;span style=&quot;font-size: 22.5px&quot;&gt;&lt;sup&gt;2&lt;/sup&gt;&lt;/span&gt;=-B-sqrt(D)/2*A" style="whiteSpace=wrap;html=1;fontSize=27;fontFamily=Comic Sans MS;fillColor=#6a00ff;strokeColor=#3700CC;fontColor=#ffffff;" parent="1" vertex="1">
                    <mxGeometry x="-70" y="730" width="250" height="100" as="geometry"/>
                </mxCell>
                <mxCell id="24" style="edgeStyle=none;html=1;entryX=0.5;entryY=0;entryDx=0;entryDy=0;fontFamily=Comic Sans MS;fontSize=18;" parent="1" source="19" target="23" edge="1">
                    <mxGeometry relative="1" as="geometry">
                        <Array as="points">
                            <mxPoint x="60" y="1240"/>
                            <mxPoint x="430" y="1240"/>
                        </Array>
                    </mxGeometry>
                </mxCell>
                <mxCell id="19" value="Tiene dos soluciones X&lt;sup&gt;1&lt;/sup&gt;&amp;nbsp;y X&lt;sup&gt;2&lt;/sup&gt;&amp;nbsp;" style="shape=document;whiteSpace=wrap;html=1;boundedLbl=1;fontSize=27;fontFamily=Comic Sans MS;fillColor=#60a917;strokeColor=#2D7600;fontColor=#ffffff;" parent="1" vertex="1">
                    <mxGeometry x="-27.5" y="920" width="165" height="140" as="geometry"/>
                </mxCell>
                <mxCell id="25" style="edgeStyle=none;html=1;fontFamily=Comic Sans MS;fontSize=18;entryX=0.5;entryY=0;entryDx=0;entryDy=0;" parent="1" target="23" edge="1">
                    <mxGeometry relative="1" as="geometry">
                        <mxPoint x="411" y="1250" as="targetPoint"/>
                        <mxPoint x="397.4000000000001" y="990" as="sourcePoint"/>
                        <Array as="points">
                            <mxPoint x="397" y="1240"/>
                            <mxPoint x="424" y="1240"/>
                        </Array>
                    </mxGeometry>
                </mxCell>
                <mxCell id="21" value="Tiene una unica solucion" style="shape=document;whiteSpace=wrap;html=1;boundedLbl=1;fontSize=27;fontFamily=Comic Sans MS;fillColor=#60a917;strokeColor=#2D7600;fontColor=#ffffff;" parent="1" vertex="1">
                    <mxGeometry x="302" y="860" width="182" height="130" as="geometry"/>
                </mxCell>
                <mxCell id="23" value="Fin" style="ellipse;whiteSpace=wrap;html=1;fontFamily=Comic Sans MS;fontSize=33;fillColor=#e51400;fontColor=#ffffff;strokeColor=#B20000;" parent="1" vertex="1">
                    <mxGeometry x="364" y="1320" width="120" height="80" as="geometry"/>
                </mxCell>
            </root>
        </mxGraphModel>
    </diagram>
</mxfile>